<svg width="91" height="57" viewBox="0 0 91 57" fill="none" xmlns="http://www.w3.org/2000/svg">
<path d="M55.882 41.2829C56.7367 42.8333 57.5731 44.2959 58.3302 45.7991C58.4789 46.0943 58.4681 46.6557 58.2824 46.9097C55.9015 50.1646 53.4759 53.3866 51.057 56.6132C50.9941 56.6971 50.8783 56.7406 50.7165 56.8512C49.1761 54.0497 47.6536 51.2801 46.1304 48.5106C39.6017 36.6405 33.0626 24.7758 26.5646 12.8886C26.0929 12.0257 25.6083 11.6826 24.6025 11.6923C18.7961 11.7482 12.989 11.728 7.18214 11.7013C6.77805 11.6994 6.16493 11.5582 6.00364 11.276C3.9876 7.7482 2.03715 4.18237 0 0.5C20.1918 0.5 40.2325 0.5 60.3915 0.5C60.2326 0.757708 60.106 1.01614 59.9323 1.237C57.367 4.4986 54.8136 7.76999 52.2018 10.9933C51.8933 11.3739 51.2595 11.6807 50.7714 11.6885C47.1496 11.7463 43.5262 11.7199 39.6131 11.7199C45.0786 21.655 50.4573 31.4322 55.882 41.2829Z" fill="white"/>
<path d="M73.6449 25.4472C71.9234 27.9903 70.2463 30.461 68.4954 33.0408C68.2397 32.6753 68.0313 32.4058 67.8529 32.1181C65.9874 29.1094 64.1453 26.0862 62.2492 23.0966C61.874 22.5051 61.8976 22.1065 62.2856 21.5393C66.8648 14.849 71.4256 8.1462 75.9641 1.42844C76.4061 0.773953 76.8711 0.492126 77.6864 0.500167C81.9105 0.541827 86.1352 0.519539 90.5871 0.519539C84.9055 8.87672 79.2974 17.1257 73.6449 25.4472Z" fill="#F0F0F0" fill-opacity="0.25"/>
<path d="M24.1835 51.6882C19.5659 43.1222 14.9865 34.6344 10.3301 26.0037C10.7048 25.9515 10.9115 25.8954 11.1175 25.898C14.9028 25.9438 18.688 26.024 22.4732 26.0282C23.3719 26.0291 23.8241 26.3777 24.247 27.1719C27.4336 33.1555 30.6638 39.1148 33.9065 45.0666C34.2475 45.6929 34.2837 46.1325 33.8505 46.7574C31.5718 50.0438 29.3498 53.3717 26.9957 56.8515C26.0169 55.0572 25.1192 53.4118 24.1835 51.6882Z" fill="#F0F0F0" fill-opacity="0.25"/>
</svg>
